<mxfile host="app.diagrams.net" modified="2023-05-28T19:04:56.270Z" agent="Mozilla/5.0 (Windows NT 10.0; Win64; x64) AppleWebKit/537.36 (KHTML, like Gecko) Chrome/112.0.0.0 Safari/537.36 OPR/98.0.0.0" etag="AN4y1FmIACjnfJWdQQ_Q" version="21.3.5" type="device">
  <diagram name="Σελίδα-1" id="h-o1yX0LM2CVH-15DDE9">
    <mxGraphModel dx="1603" dy="2030" grid="1" gridSize="10" guides="1" tooltips="1" connect="1" arrows="1" fold="1" page="1" pageScale="1" pageWidth="1654" pageHeight="1169" math="0" shadow="0">
      <root>
        <mxCell id="0" />
        <mxCell id="1" parent="0" />
        <mxCell id="8t45LIVKKecfM5tV3rzv-18" style="rounded=0;orthogonalLoop=1;jettySize=auto;html=1;exitX=0.5;exitY=0.5;exitDx=0;exitDy=0;exitPerimeter=0;entryX=-0.029;entryY=0.591;entryDx=0;entryDy=0;entryPerimeter=0;strokeColor=#000000;fontColor=#000000;" parent="1" source="8t45LIVKKecfM5tV3rzv-1" target="8t45LIVKKecfM5tV3rzv-15" edge="1">
          <mxGeometry relative="1" as="geometry" />
        </mxCell>
        <mxCell id="8t45LIVKKecfM5tV3rzv-19" value="Επιλέγει διατροφολόγο" style="edgeLabel;html=1;align=center;verticalAlign=middle;resizable=0;points=[];fontColor=#000000;" parent="8t45LIVKKecfM5tV3rzv-18" vertex="1" connectable="0">
          <mxGeometry x="-0.1835" relative="1" as="geometry">
            <mxPoint x="20" y="-8" as="offset" />
          </mxGeometry>
        </mxCell>
        <mxCell id="8t45LIVKKecfM5tV3rzv-1" value="Χρήστης" style="shape=umlActor;verticalLabelPosition=bottom;verticalAlign=top;html=1;fontColor=#000000;" parent="1" vertex="1">
          <mxGeometry x="50" y="540" width="30" height="60" as="geometry" />
        </mxCell>
        <mxCell id="8t45LIVKKecfM5tV3rzv-16" value="" style="rounded=0;orthogonalLoop=1;jettySize=auto;html=1;entryX=0.598;entryY=-0.009;entryDx=0;entryDy=0;entryPerimeter=0;strokeColor=#000000;fontColor=#000000;" parent="1" source="8t45LIVKKecfM5tV3rzv-12" target="8t45LIVKKecfM5tV3rzv-15" edge="1">
          <mxGeometry relative="1" as="geometry" />
        </mxCell>
        <mxCell id="8t45LIVKKecfM5tV3rzv-12" value="&lt;font&gt;Εμφάνισε&lt;/font&gt;" style="ellipse;shape=umlControl;whiteSpace=wrap;html=1;strokeColor=#000000;fontColor=#000000;" parent="1" vertex="1">
          <mxGeometry x="502.5" width="70" height="80" as="geometry" />
        </mxCell>
        <mxCell id="8t45LIVKKecfM5tV3rzv-15" value="Σελίδα με λίστα διατροφολόγων&lt;br&gt;" style="shape=umlBoundary;whiteSpace=wrap;html=1;strokeColor=#000000;fontColor=#000000;" parent="1" vertex="1">
          <mxGeometry x="340" y="250" width="110" height="90" as="geometry" />
        </mxCell>
        <mxCell id="8t45LIVKKecfM5tV3rzv-28" value="" style="rounded=0;orthogonalLoop=1;jettySize=auto;html=1;exitX=0.994;exitY=0.374;exitDx=0;exitDy=0;exitPerimeter=0;strokeColor=#000000;fontColor=#000000;" parent="1" source="8t45LIVKKecfM5tV3rzv-15" target="09Y03hOddAknPkSXVENw-3" edge="1">
          <mxGeometry relative="1" as="geometry">
            <mxPoint x="693.099030975708" y="208.00319074045683" as="sourcePoint" />
          </mxGeometry>
        </mxCell>
        <mxCell id="8t45LIVKKecfM5tV3rzv-26" value="&lt;font&gt;Σελίδα πληροφοριών διατροφολόγου&lt;/font&gt;" style="shape=umlBoundary;whiteSpace=wrap;html=1;strokeColor=#000000;fontColor=#000000;" parent="1" vertex="1">
          <mxGeometry x="490" y="410" width="105" height="90" as="geometry" />
        </mxCell>
        <mxCell id="8t45LIVKKecfM5tV3rzv-33" value="" style="rounded=0;orthogonalLoop=1;jettySize=auto;html=1;strokeColor=#000000;fontColor=#000000;entryX=0.871;entryY=0.094;entryDx=0;entryDy=0;entryPerimeter=0;" parent="1" source="8t45LIVKKecfM5tV3rzv-27" target="8t45LIVKKecfM5tV3rzv-26" edge="1">
          <mxGeometry relative="1" as="geometry" />
        </mxCell>
        <mxCell id="8t45LIVKKecfM5tV3rzv-27" value="&lt;font&gt;Εμφάνισε&lt;/font&gt;" style="ellipse;shape=umlControl;whiteSpace=wrap;html=1;strokeColor=#000000;fontColor=#000000;" parent="1" vertex="1">
          <mxGeometry x="660" y="290" width="70" height="80" as="geometry" />
        </mxCell>
        <mxCell id="8t45LIVKKecfM5tV3rzv-29" value="&lt;font&gt;Λίστα διατροφολόγων&lt;/font&gt;" style="ellipse;shape=umlEntity;whiteSpace=wrap;html=1;strokeColor=#000000;fontColor=#000000;" parent="1" vertex="1">
          <mxGeometry x="850" y="-50" width="85" height="80" as="geometry" />
        </mxCell>
        <mxCell id="mxpaeU-n5_tWIOXO6mhX-4" value="" style="endArrow=classic;html=1;rounded=0;exitX=-0.036;exitY=0.483;exitDx=0;exitDy=0;exitPerimeter=0;entryX=1.002;entryY=0.525;entryDx=0;entryDy=0;entryPerimeter=0;" parent="1" source="09Y03hOddAknPkSXVENw-1" target="8t45LIVKKecfM5tV3rzv-12" edge="1">
          <mxGeometry width="50" height="50" relative="1" as="geometry">
            <mxPoint x="690" y="90" as="sourcePoint" />
            <mxPoint x="620" y="50" as="targetPoint" />
          </mxGeometry>
        </mxCell>
        <mxCell id="mxpaeU-n5_tWIOXO6mhX-7" value="" style="edgeStyle=none;curved=1;rounded=0;orthogonalLoop=1;jettySize=auto;html=1;fontSize=12;startSize=8;endSize=8;strokeColor=#000000;fontColor=#000000;entryX=-0.037;entryY=0.596;entryDx=0;entryDy=0;entryPerimeter=0;exitX=0.5;exitY=0.5;exitDx=0;exitDy=0;exitPerimeter=0;" parent="1" source="8t45LIVKKecfM5tV3rzv-1" target="8t45LIVKKecfM5tV3rzv-26" edge="1">
          <mxGeometry relative="1" as="geometry">
            <mxPoint x="230" y="450" as="sourcePoint" />
            <mxPoint x="488" y="578" as="targetPoint" />
          </mxGeometry>
        </mxCell>
        <mxCell id="mxpaeU-n5_tWIOXO6mhX-8" value="&lt;font style=&quot;font-size: 12px;&quot;&gt;Εισάγει επιλογή&lt;br style=&quot;font-size: 12px;&quot;&gt;(κλείσιμο ραντεβού ή όχι)&lt;br style=&quot;font-size: 12px;&quot;&gt;&lt;/font&gt;" style="edgeLabel;html=1;align=center;verticalAlign=middle;resizable=0;points=[];fontSize=12;rotation=0;fontColor=#000000;" parent="mxpaeU-n5_tWIOXO6mhX-7" vertex="1" connectable="0">
          <mxGeometry x="-0.2525" y="2" relative="1" as="geometry">
            <mxPoint x="54" y="24" as="offset" />
          </mxGeometry>
        </mxCell>
        <mxCell id="mxpaeU-n5_tWIOXO6mhX-9" value="&lt;span style=&quot;font-size: 14px;&quot;&gt;Επιθυμία χρήστη για ραντεβού;&lt;/span&gt;" style="ellipse;shape=umlControl;whiteSpace=wrap;html=1;fontSize=16;strokeColor=#000000;fontColor=#000000;" parent="1" vertex="1">
          <mxGeometry x="942.5" y="290" width="90" height="100" as="geometry" />
        </mxCell>
        <mxCell id="mxpaeU-n5_tWIOXO6mhX-10" value="" style="endArrow=classic;html=1;rounded=0;exitX=0.98;exitY=0.376;exitDx=0;exitDy=0;exitPerimeter=0;entryX=0;entryY=0.5;entryDx=0;entryDy=0;entryPerimeter=0;" parent="1" source="8t45LIVKKecfM5tV3rzv-26" target="mxpaeU-n5_tWIOXO6mhX-9" edge="1">
          <mxGeometry width="50" height="50" relative="1" as="geometry">
            <mxPoint x="660" y="470" as="sourcePoint" />
            <mxPoint x="710" y="420" as="targetPoint" />
          </mxGeometry>
        </mxCell>
        <mxCell id="mxpaeU-n5_tWIOXO6mhX-11" value="" style="endArrow=classic;html=1;rounded=0;exitX=0.024;exitY=0.811;exitDx=0;exitDy=0;exitPerimeter=0;entryX=0.896;entryY=0.203;entryDx=0;entryDy=0;entryPerimeter=0;" parent="1" source="mxpaeU-n5_tWIOXO6mhX-9" target="mxpaeU-n5_tWIOXO6mhX-14" edge="1">
          <mxGeometry width="50" height="50" relative="1" as="geometry">
            <mxPoint x="1060" y="440" as="sourcePoint" />
            <mxPoint x="590" y="530" as="targetPoint" />
          </mxGeometry>
        </mxCell>
        <mxCell id="mxpaeU-n5_tWIOXO6mhX-12" value="&lt;font style=&quot;font-size: 18px;&quot;&gt;ναι&lt;br style=&quot;font-size: 18px;&quot;&gt;&lt;br style=&quot;font-size: 18px;&quot;&gt;&lt;/font&gt;" style="edgeLabel;html=1;align=center;verticalAlign=middle;resizable=0;points=[];fontSize=18;rotation=0;fontColor=#000000;" parent="1" vertex="1" connectable="0">
          <mxGeometry x="942.5026897229322" y="389.99659987217376" as="geometry">
            <mxPoint x="-9" y="14" as="offset" />
          </mxGeometry>
        </mxCell>
        <mxCell id="mxpaeU-n5_tWIOXO6mhX-13" value="&lt;font&gt;Σελίδα επιλογής ημέρας&amp;nbsp;&lt;/font&gt;" style="shape=umlBoundary;whiteSpace=wrap;html=1;strokeColor=#000000;fontColor=#000000;" parent="1" vertex="1">
          <mxGeometry x="510" y="610" width="100" height="80" as="geometry" />
        </mxCell>
        <mxCell id="mxpaeU-n5_tWIOXO6mhX-14" value="&lt;font&gt;Εμφάνισε&lt;/font&gt;" style="ellipse;shape=umlControl;whiteSpace=wrap;html=1;strokeColor=#000000;fontColor=#000000;" parent="1" vertex="1">
          <mxGeometry x="787.5" y="430" width="70" height="80" as="geometry" />
        </mxCell>
        <mxCell id="mxpaeU-n5_tWIOXO6mhX-16" value="" style="endArrow=classic;html=1;rounded=0;exitX=0.019;exitY=0.743;exitDx=0;exitDy=0;exitPerimeter=0;entryX=1.006;entryY=0.531;entryDx=0;entryDy=0;entryPerimeter=0;" parent="1" source="mxpaeU-n5_tWIOXO6mhX-14" target="mxpaeU-n5_tWIOXO6mhX-13" edge="1">
          <mxGeometry width="50" height="50" relative="1" as="geometry">
            <mxPoint x="400" y="690" as="sourcePoint" />
            <mxPoint x="170" y="730" as="targetPoint" />
          </mxGeometry>
        </mxCell>
        <mxCell id="mxpaeU-n5_tWIOXO6mhX-19" value="" style="endArrow=classic;html=1;rounded=0;exitX=1.033;exitY=0.587;exitDx=0;exitDy=0;exitPerimeter=0;entryX=0.039;entryY=0.555;entryDx=0;entryDy=0;entryPerimeter=0;" parent="1" source="mxpaeU-n5_tWIOXO6mhX-13" target="mxpaeU-n5_tWIOXO6mhX-20" edge="1">
          <mxGeometry width="50" height="50" relative="1" as="geometry">
            <mxPoint x="730" y="760" as="sourcePoint" />
            <mxPoint x="770" y="673" as="targetPoint" />
          </mxGeometry>
        </mxCell>
        <mxCell id="mxpaeU-n5_tWIOXO6mhX-20" value="Υπάρχει διαθέσιμη ώρα;" style="ellipse;shape=umlControl;whiteSpace=wrap;html=1;strokeColor=#000000;fontColor=#000000;fontSize=12;" parent="1" vertex="1">
          <mxGeometry x="857.5" y="590" width="99" height="120" as="geometry" />
        </mxCell>
        <mxCell id="mxpaeU-n5_tWIOXO6mhX-21" value="" style="endArrow=classic;html=1;rounded=0;exitX=0.446;exitY=1.031;exitDx=0;exitDy=0;exitPerimeter=0;entryX=0.615;entryY=0.088;entryDx=0;entryDy=0;entryPerimeter=0;" parent="1" source="mxpaeU-n5_tWIOXO6mhX-20" target="09Y03hOddAknPkSXVENw-6" edge="1">
          <mxGeometry width="50" height="50" relative="1" as="geometry">
            <mxPoint x="939" y="720" as="sourcePoint" />
            <mxPoint x="670" y="790" as="targetPoint" />
          </mxGeometry>
        </mxCell>
        <mxCell id="mxpaeU-n5_tWIOXO6mhX-25" value="&lt;font style=&quot;font-size: 14px;&quot;&gt;Σελίδα επιλογής ώρας ραντεβού&lt;/font&gt;" style="shape=umlBoundary;whiteSpace=wrap;html=1;strokeColor=#000000;fontColor=#000000;" parent="1" vertex="1">
          <mxGeometry x="475" y="840" width="105" height="90" as="geometry" />
        </mxCell>
        <mxCell id="mxpaeU-n5_tWIOXO6mhX-26" value="&lt;font&gt;Εμφάνισε&lt;/font&gt;" style="ellipse;shape=umlControl;whiteSpace=wrap;html=1;strokeColor=#000000;fontColor=#000000;" parent="1" vertex="1">
          <mxGeometry x="660" y="760" width="70" height="80" as="geometry" />
        </mxCell>
        <mxCell id="mxpaeU-n5_tWIOXO6mhX-27" value="" style="endArrow=classic;html=1;rounded=0;exitX=0.023;exitY=0.765;exitDx=0;exitDy=0;exitPerimeter=0;entryX=0.886;entryY=0.133;entryDx=0;entryDy=0;entryPerimeter=0;" parent="1" source="mxpaeU-n5_tWIOXO6mhX-26" target="mxpaeU-n5_tWIOXO6mhX-25" edge="1">
          <mxGeometry width="50" height="50" relative="1" as="geometry">
            <mxPoint x="524" y="910" as="sourcePoint" />
            <mxPoint x="706" y="910" as="targetPoint" />
          </mxGeometry>
        </mxCell>
        <mxCell id="mxpaeU-n5_tWIOXO6mhX-28" value="&lt;font style=&quot;font-size: 11px;&quot;&gt;Λίστα διατροφολόγων&lt;/font&gt;" style="ellipse;shape=umlEntity;whiteSpace=wrap;html=1;strokeColor=#000000;fontColor=#000000;fontSize=11;" parent="1" vertex="1">
          <mxGeometry x="1010" y="770" width="80" height="80" as="geometry" />
        </mxCell>
        <mxCell id="mxpaeU-n5_tWIOXO6mhX-29" value="" style="endArrow=classic;html=1;rounded=0;exitX=-0.009;exitY=0.467;exitDx=0;exitDy=0;exitPerimeter=0;entryX=1.052;entryY=0.608;entryDx=0;entryDy=0;entryPerimeter=0;" parent="1" source="09Y03hOddAknPkSXVENw-6" target="mxpaeU-n5_tWIOXO6mhX-26" edge="1">
          <mxGeometry width="50" height="50" relative="1" as="geometry">
            <mxPoint x="490" y="980" as="sourcePoint" />
            <mxPoint x="860" y="880" as="targetPoint" />
          </mxGeometry>
        </mxCell>
        <mxCell id="mxpaeU-n5_tWIOXO6mhX-30" value="" style="edgeStyle=none;curved=1;rounded=0;orthogonalLoop=1;jettySize=auto;html=1;fontSize=12;startSize=8;endSize=8;strokeColor=#000000;fontColor=#000000;exitX=0.5;exitY=0.5;exitDx=0;exitDy=0;exitPerimeter=0;entryX=0.28;entryY=0.214;entryDx=0;entryDy=0;entryPerimeter=0;" parent="1" source="8t45LIVKKecfM5tV3rzv-1" target="mxpaeU-n5_tWIOXO6mhX-25" edge="1">
          <mxGeometry relative="1" as="geometry">
            <mxPoint x="155" y="450" as="sourcePoint" />
            <mxPoint x="518" y="680" as="targetPoint" />
          </mxGeometry>
        </mxCell>
        <mxCell id="mxpaeU-n5_tWIOXO6mhX-31" value="&lt;font style=&quot;font-size: 14px;&quot;&gt;Επιλέγει ώρα&lt;br style=&quot;font-size: 12px;&quot;&gt;&lt;/font&gt;" style="edgeLabel;html=1;align=center;verticalAlign=middle;resizable=0;points=[];fontSize=12;rotation=0;fontColor=#000000;" parent="mxpaeU-n5_tWIOXO6mhX-30" vertex="1" connectable="0">
          <mxGeometry x="-0.2525" y="2" relative="1" as="geometry">
            <mxPoint x="43" y="40" as="offset" />
          </mxGeometry>
        </mxCell>
        <mxCell id="mxpaeU-n5_tWIOXO6mhX-32" value="" style="edgeStyle=none;curved=1;rounded=0;orthogonalLoop=1;jettySize=auto;html=1;fontSize=12;startSize=8;endSize=8;strokeColor=#000000;fontColor=#000000;entryX=-0.039;entryY=0.449;entryDx=0;entryDy=0;entryPerimeter=0;exitX=0.5;exitY=0.5;exitDx=0;exitDy=0;exitPerimeter=0;" parent="1" source="8t45LIVKKecfM5tV3rzv-1" target="mxpaeU-n5_tWIOXO6mhX-13" edge="1">
          <mxGeometry relative="1" as="geometry">
            <mxPoint x="135" y="470" as="sourcePoint" />
            <mxPoint x="517" y="671" as="targetPoint" />
          </mxGeometry>
        </mxCell>
        <mxCell id="mxpaeU-n5_tWIOXO6mhX-33" value="&lt;font style=&quot;font-size: 14px;&quot;&gt;Επιλέγει ημέρα&lt;br style=&quot;font-size: 12px;&quot;&gt;&lt;/font&gt;" style="edgeLabel;html=1;align=center;verticalAlign=middle;resizable=0;points=[];fontSize=12;rotation=0;fontColor=#000000;" parent="mxpaeU-n5_tWIOXO6mhX-32" vertex="1" connectable="0">
          <mxGeometry x="-0.2525" y="2" relative="1" as="geometry">
            <mxPoint x="54" y="28" as="offset" />
          </mxGeometry>
        </mxCell>
        <mxCell id="mxpaeU-n5_tWIOXO6mhX-34" value="" style="endArrow=classic;html=1;rounded=0;exitX=1.009;exitY=0.557;exitDx=0;exitDy=0;exitPerimeter=0;entryX=-0.027;entryY=0.485;entryDx=0;entryDy=0;entryPerimeter=0;" parent="1" source="mxpaeU-n5_tWIOXO6mhX-25" target="mxpaeU-n5_tWIOXO6mhX-35" edge="1">
          <mxGeometry width="50" height="50" relative="1" as="geometry">
            <mxPoint x="370" y="920" as="sourcePoint" />
            <mxPoint x="360" y="830" as="targetPoint" />
          </mxGeometry>
        </mxCell>
        <mxCell id="mxpaeU-n5_tWIOXO6mhX-35" value="&lt;font&gt;Εμφάνισε&lt;/font&gt;" style="ellipse;shape=umlControl;whiteSpace=wrap;html=1;strokeColor=#000000;fontColor=#000000;" parent="1" vertex="1">
          <mxGeometry x="670" y="890" width="70" height="80" as="geometry" />
        </mxCell>
        <mxCell id="mxpaeU-n5_tWIOXO6mhX-39" value="" style="endArrow=classic;html=1;rounded=0;exitX=0.253;exitY=0.927;exitDx=0;exitDy=0;exitPerimeter=0;entryX=1.009;entryY=0.497;entryDx=0;entryDy=0;entryPerimeter=0;" parent="1" source="mxpaeU-n5_tWIOXO6mhX-35" target="mxpaeU-n5_tWIOXO6mhX-40" edge="1">
          <mxGeometry width="50" height="50" relative="1" as="geometry">
            <mxPoint x="703" y="930" as="sourcePoint" />
            <mxPoint x="580" y="970" as="targetPoint" />
          </mxGeometry>
        </mxCell>
        <mxCell id="mxpaeU-n5_tWIOXO6mhX-40" value="&lt;font style=&quot;font-size: 14px;&quot;&gt;Σελίδα επιβεβαίωσης ραντεβού&lt;/font&gt;" style="shape=umlBoundary;whiteSpace=wrap;html=1;strokeColor=#000000;fontColor=#000000;" parent="1" vertex="1">
          <mxGeometry x="475" y="1020" width="105" height="90" as="geometry" />
        </mxCell>
        <mxCell id="mxpaeU-n5_tWIOXO6mhX-42" value="" style="edgeStyle=none;curved=1;rounded=0;orthogonalLoop=1;jettySize=auto;html=1;fontSize=12;startSize=8;endSize=8;strokeColor=#000000;fontColor=#000000;entryX=0.262;entryY=0.158;entryDx=0;entryDy=0;entryPerimeter=0;exitX=0.5;exitY=0.5;exitDx=0;exitDy=0;exitPerimeter=0;" parent="1" target="mxpaeU-n5_tWIOXO6mhX-40" edge="1">
          <mxGeometry relative="1" as="geometry">
            <mxPoint x="75" y="580" as="sourcePoint" />
            <mxPoint x="509" y="444" as="targetPoint" />
          </mxGeometry>
        </mxCell>
        <mxCell id="mxpaeU-n5_tWIOXO6mhX-43" value="&lt;font style=&quot;font-size: 13px;&quot;&gt;Εισάγει επιλογή&lt;br style=&quot;font-size: 13px;&quot;&gt;(επιβεβαίωση ή όχι)&lt;br style=&quot;font-size: 13px;&quot;&gt;&lt;/font&gt;" style="edgeLabel;html=1;align=center;verticalAlign=middle;resizable=0;points=[];fontSize=13;rotation=0;fontColor=#000000;" parent="mxpaeU-n5_tWIOXO6mhX-42" vertex="1" connectable="0">
          <mxGeometry x="-0.2525" y="2" relative="1" as="geometry">
            <mxPoint x="24" y="32" as="offset" />
          </mxGeometry>
        </mxCell>
        <mxCell id="mxpaeU-n5_tWIOXO6mhX-44" value="" style="endArrow=classic;html=1;rounded=0;exitX=1.009;exitY=0.605;exitDx=0;exitDy=0;exitPerimeter=0;entryX=-0.004;entryY=0.501;entryDx=0;entryDy=0;entryPerimeter=0;" parent="1" source="mxpaeU-n5_tWIOXO6mhX-40" target="mxpaeU-n5_tWIOXO6mhX-45" edge="1">
          <mxGeometry width="50" height="50" relative="1" as="geometry">
            <mxPoint x="500" y="1140" as="sourcePoint" />
            <mxPoint x="780" y="1110" as="targetPoint" />
          </mxGeometry>
        </mxCell>
        <mxCell id="mxpaeU-n5_tWIOXO6mhX-45" value="&lt;span style=&quot;font-size: 14px;&quot;&gt;Επιβεβαιώνει ο χρήστης;&lt;/span&gt;" style="ellipse;shape=umlControl;whiteSpace=wrap;html=1;fontSize=16;strokeColor=#000000;fontColor=#000000;" parent="1" vertex="1">
          <mxGeometry x="780" y="1040" width="92" height="100" as="geometry" />
        </mxCell>
        <mxCell id="mxpaeU-n5_tWIOXO6mhX-47" value="" style="endArrow=classic;html=1;rounded=0;exitX=1.002;exitY=0.413;exitDx=0;exitDy=0;exitPerimeter=0;entryX=0.02;entryY=0.566;entryDx=0;entryDy=0;entryPerimeter=0;" parent="1" source="mxpaeU-n5_tWIOXO6mhX-45" target="mxpaeU-n5_tWIOXO6mhX-49" edge="1">
          <mxGeometry width="50" height="50" relative="1" as="geometry">
            <mxPoint x="1100.5" y="990" as="sourcePoint" />
            <mxPoint x="1030" y="1081" as="targetPoint" />
          </mxGeometry>
        </mxCell>
        <mxCell id="mxpaeU-n5_tWIOXO6mhX-48" value="&lt;font style=&quot;font-size: 15px;&quot;&gt;ναι&lt;br style=&quot;&quot;&gt;&lt;br style=&quot;&quot;&gt;&lt;/font&gt;" style="edgeLabel;html=1;align=center;verticalAlign=middle;resizable=0;points=[];fontSize=14;rotation=0;fontColor=#000000;" parent="1" vertex="1" connectable="0">
          <mxGeometry x="750.0026897229322" y="759.9965998721738" as="geometry">
            <mxPoint x="143" y="347" as="offset" />
          </mxGeometry>
        </mxCell>
        <mxCell id="mxpaeU-n5_tWIOXO6mhX-49" value="&lt;font&gt;Πρόσθεσε ραντεβού στη λίστα &quot;τα ραντεβού μου&quot;&lt;/font&gt;" style="ellipse;shape=umlControl;whiteSpace=wrap;html=1;strokeColor=#000000;fontColor=#000000;" parent="1" vertex="1">
          <mxGeometry x="1025" y="1020" width="115" height="130" as="geometry" />
        </mxCell>
        <mxCell id="mxpaeU-n5_tWIOXO6mhX-51" value="&lt;font&gt;User&lt;/font&gt;" style="ellipse;shape=umlEntity;whiteSpace=wrap;html=1;strokeColor=#000000;fontColor=#000000;" parent="1" vertex="1">
          <mxGeometry x="1080" y="890" width="85" height="80" as="geometry" />
        </mxCell>
        <mxCell id="mxpaeU-n5_tWIOXO6mhX-53" value="&lt;font&gt;Εμφάνισε&lt;/font&gt;" style="ellipse;shape=umlControl;whiteSpace=wrap;html=1;strokeColor=#000000;fontColor=#000000;" parent="1" vertex="1">
          <mxGeometry x="1032.5" y="1169" width="70" height="80" as="geometry" />
        </mxCell>
        <mxCell id="mxpaeU-n5_tWIOXO6mhX-54" value="" style="endArrow=classic;html=1;rounded=0;exitX=0.107;exitY=0.433;exitDx=0;exitDy=0;exitPerimeter=0;entryX=0.988;entryY=0.596;entryDx=0;entryDy=0;entryPerimeter=0;" parent="1" source="mxpaeU-n5_tWIOXO6mhX-53" target="mxpaeU-n5_tWIOXO6mhX-55" edge="1">
          <mxGeometry width="50" height="50" relative="1" as="geometry">
            <mxPoint x="718" y="944" as="sourcePoint" />
            <mxPoint x="610" y="1205" as="targetPoint" />
          </mxGeometry>
        </mxCell>
        <mxCell id="mxpaeU-n5_tWIOXO6mhX-55" value="&lt;font style=&quot;font-size: 14px;&quot;&gt;Σελίδα με τα ραντεβού του χρήστη&lt;/font&gt;" style="shape=umlBoundary;whiteSpace=wrap;html=1;strokeColor=#000000;fontColor=#000000;" parent="1" vertex="1">
          <mxGeometry x="857.5" y="1150" width="105" height="90" as="geometry" />
        </mxCell>
        <mxCell id="mxpaeU-n5_tWIOXO6mhX-56" value="" style="endArrow=classic;html=1;rounded=0;exitX=0.137;exitY=0.297;exitDx=0;exitDy=0;exitPerimeter=0;fontColor=#FF0000;strokeColor=#FF0000;entryX=0.726;entryY=0.961;entryDx=0;entryDy=0;entryPerimeter=0;" parent="1" source="mxpaeU-n5_tWIOXO6mhX-9" target="09Y03hOddAknPkSXVENw-1" edge="1">
          <mxGeometry width="50" height="50" relative="1" as="geometry">
            <mxPoint x="902" y="421" as="sourcePoint" />
            <mxPoint x="1110" y="310" as="targetPoint" />
          </mxGeometry>
        </mxCell>
        <mxCell id="mxpaeU-n5_tWIOXO6mhX-57" value="&lt;font style=&quot;font-size: 18px;&quot;&gt;όχι&lt;br style=&quot;font-size: 18px;&quot;&gt;&lt;/font&gt;" style="edgeLabel;html=1;align=center;verticalAlign=middle;resizable=0;points=[];fontSize=18;rotation=0;fontColor=#000000;" parent="1" vertex="1" connectable="0">
          <mxGeometry x="935.0026897229322" y="294.99659987217376" as="geometry">
            <mxPoint x="9" y="-2" as="offset" />
          </mxGeometry>
        </mxCell>
        <mxCell id="mxpaeU-n5_tWIOXO6mhX-58" value="" style="endArrow=classic;html=1;rounded=0;exitX=0.976;exitY=0.444;exitDx=0;exitDy=0;exitPerimeter=0;fontColor=#FF0000;strokeColor=#FF0000;entryX=-0.022;entryY=0.612;entryDx=0;entryDy=0;entryPerimeter=0;" parent="1" source="mxpaeU-n5_tWIOXO6mhX-20" target="mxpaeU-n5_tWIOXO6mhX-61" edge="1">
          <mxGeometry width="50" height="50" relative="1" as="geometry">
            <mxPoint x="1290" y="873" as="sourcePoint" />
            <mxPoint x="1140" y="660" as="targetPoint" />
          </mxGeometry>
        </mxCell>
        <mxCell id="mxpaeU-n5_tWIOXO6mhX-59" value="&lt;font style=&quot;font-size: 18px;&quot;&gt;ναι&lt;br style=&quot;font-size: 18px;&quot;&gt;&lt;br style=&quot;font-size: 18px;&quot;&gt;&lt;/font&gt;" style="edgeLabel;html=1;align=center;verticalAlign=middle;resizable=0;points=[];fontSize=18;rotation=0;fontColor=#000000;" parent="1" vertex="1" connectable="0">
          <mxGeometry x="892.5026897229322" y="719.9965998721738" as="geometry">
            <mxPoint x="-9" y="14" as="offset" />
          </mxGeometry>
        </mxCell>
        <mxCell id="mxpaeU-n5_tWIOXO6mhX-60" value="&lt;font style=&quot;font-size: 18px;&quot;&gt;όχι&lt;br style=&quot;font-size: 18px;&quot;&gt;&lt;/font&gt;" style="edgeLabel;html=1;align=center;verticalAlign=middle;resizable=0;points=[];fontSize=18;rotation=0;fontColor=#000000;" parent="1" vertex="1" connectable="0">
          <mxGeometry x="987.5026897229322" y="629.9965998721738" as="geometry">
            <mxPoint x="-9" y="14" as="offset" />
          </mxGeometry>
        </mxCell>
        <mxCell id="mxpaeU-n5_tWIOXO6mhX-61" value="&lt;font style=&quot;font-size: 14px;&quot;&gt;Εμφάνισε&lt;br&gt;μήνυμα για να ενημερωθεί ο χρήστης&lt;br&gt;&lt;/font&gt;" style="ellipse;shape=umlControl;whiteSpace=wrap;html=1;strokeColor=#000000;fontColor=#E6E6E6;fillColor=#FF0000;" parent="1" vertex="1">
          <mxGeometry x="1330" y="340" width="100" height="110" as="geometry" />
        </mxCell>
        <mxCell id="mxpaeU-n5_tWIOXO6mhX-62" value="" style="endArrow=classic;html=1;rounded=0;fontColor=#FF0000;strokeColor=#FF0000;entryX=0.89;entryY=0.887;entryDx=0;entryDy=0;entryPerimeter=0;exitX=0.003;exitY=0.352;exitDx=0;exitDy=0;exitPerimeter=0;" parent="1" source="mxpaeU-n5_tWIOXO6mhX-61" target="09Y03hOddAknPkSXVENw-1" edge="1">
          <mxGeometry width="50" height="50" relative="1" as="geometry">
            <mxPoint x="1350" y="330" as="sourcePoint" />
            <mxPoint x="1000" y="190" as="targetPoint" />
          </mxGeometry>
        </mxCell>
        <mxCell id="mxpaeU-n5_tWIOXO6mhX-63" value="" style="endArrow=classic;html=1;rounded=0;exitX=0.444;exitY=0.163;exitDx=0;exitDy=0;exitPerimeter=0;fontColor=#FF0000;strokeColor=#FF0000;entryX=0.52;entryY=1.035;entryDx=0;entryDy=0;entryPerimeter=0;" parent="1" source="mxpaeU-n5_tWIOXO6mhX-45" target="09Y03hOddAknPkSXVENw-1" edge="1">
          <mxGeometry width="50" height="50" relative="1" as="geometry">
            <mxPoint x="838" y="1056" as="sourcePoint" />
            <mxPoint x="600" y="60" as="targetPoint" />
          </mxGeometry>
        </mxCell>
        <mxCell id="mxpaeU-n5_tWIOXO6mhX-64" value="&lt;font style=&quot;font-size: 18px;&quot;&gt;όχι&lt;br style=&quot;font-size: 18px;&quot;&gt;&lt;/font&gt;" style="edgeLabel;html=1;align=center;verticalAlign=middle;resizable=0;points=[];fontSize=18;rotation=0;fontColor=#000000;" parent="1" vertex="1" connectable="0">
          <mxGeometry x="815.0026897229322" y="989.9965998721738" as="geometry">
            <mxPoint x="-9" y="14" as="offset" />
          </mxGeometry>
        </mxCell>
        <mxCell id="09Y03hOddAknPkSXVENw-1" value="&lt;font&gt;Λήψη διατροφολόγων&lt;/font&gt;" style="ellipse;shape=umlControl;whiteSpace=wrap;html=1;strokeColor=#000000;fontColor=#000000;" parent="1" vertex="1">
          <mxGeometry x="660" y="-30" width="90" height="100" as="geometry" />
        </mxCell>
        <mxCell id="09Y03hOddAknPkSXVENw-2" value="" style="endArrow=classic;html=1;rounded=0;exitX=1;exitY=0.4;exitDx=0;exitDy=0;exitPerimeter=0;entryX=0;entryY=0.625;entryDx=0;entryDy=0;entryPerimeter=0;" parent="1" source="09Y03hOddAknPkSXVENw-1" target="8t45LIVKKecfM5tV3rzv-29" edge="1">
          <mxGeometry width="50" height="50" relative="1" as="geometry">
            <mxPoint x="587" y="48" as="sourcePoint" />
            <mxPoint x="550" y="52" as="targetPoint" />
          </mxGeometry>
        </mxCell>
        <mxCell id="09Y03hOddAknPkSXVENw-3" value="&lt;font&gt;Λήψη πληροφ. διατροφολόγου&lt;/font&gt;" style="ellipse;shape=umlControl;whiteSpace=wrap;html=1;strokeColor=#000000;fontColor=#000000;" parent="1" vertex="1">
          <mxGeometry x="570" y="190" width="90" height="100" as="geometry" />
        </mxCell>
        <mxCell id="09Y03hOddAknPkSXVENw-4" value="" style="rounded=0;orthogonalLoop=1;jettySize=auto;html=1;exitX=0.82;exitY=0.214;exitDx=0;exitDy=0;exitPerimeter=0;strokeColor=#000000;fontColor=#000000;entryX=0;entryY=1;entryDx=0;entryDy=0;" parent="1" source="09Y03hOddAknPkSXVENw-3" target="8t45LIVKKecfM5tV3rzv-29" edge="1">
          <mxGeometry relative="1" as="geometry">
            <mxPoint x="459" y="294" as="sourcePoint" />
            <mxPoint x="581" y="262" as="targetPoint" />
          </mxGeometry>
        </mxCell>
        <mxCell id="09Y03hOddAknPkSXVENw-5" value="" style="rounded=0;orthogonalLoop=1;jettySize=auto;html=1;exitX=0.872;exitY=0.89;exitDx=0;exitDy=0;exitPerimeter=0;strokeColor=#000000;fontColor=#000000;entryX=0.192;entryY=0.245;entryDx=0;entryDy=0;entryPerimeter=0;" parent="1" source="09Y03hOddAknPkSXVENw-3" target="8t45LIVKKecfM5tV3rzv-27" edge="1">
          <mxGeometry relative="1" as="geometry">
            <mxPoint x="654" y="221" as="sourcePoint" />
            <mxPoint x="872" y="28" as="targetPoint" />
          </mxGeometry>
        </mxCell>
        <mxCell id="09Y03hOddAknPkSXVENw-6" value="&lt;font&gt;Λήψη διαθ.&lt;br&gt;ωρών&lt;br&gt;&lt;/font&gt;" style="ellipse;shape=umlControl;whiteSpace=wrap;html=1;strokeColor=#000000;fontColor=#000000;" parent="1" vertex="1">
          <mxGeometry x="857.5" y="790" width="70" height="80" as="geometry" />
        </mxCell>
        <mxCell id="09Y03hOddAknPkSXVENw-7" value="" style="endArrow=classic;html=1;rounded=0;exitX=0.9;exitY=0.873;exitDx=0;exitDy=0;exitPerimeter=0;entryX=0;entryY=0;entryDx=0;entryDy=0;" parent="1" source="mxpaeU-n5_tWIOXO6mhX-20" target="mxpaeU-n5_tWIOXO6mhX-28" edge="1">
          <mxGeometry width="50" height="50" relative="1" as="geometry">
            <mxPoint x="623" y="667" as="sourcePoint" />
            <mxPoint x="871" y="667" as="targetPoint" />
          </mxGeometry>
        </mxCell>
        <mxCell id="09Y03hOddAknPkSXVENw-8" value="" style="endArrow=classic;html=1;rounded=0;entryX=-0.029;entryY=0.634;entryDx=0;entryDy=0;entryPerimeter=0;" parent="1" source="09Y03hOddAknPkSXVENw-6" target="mxpaeU-n5_tWIOXO6mhX-28" edge="1">
          <mxGeometry width="50" height="50" relative="1" as="geometry">
            <mxPoint x="633" y="677" as="sourcePoint" />
            <mxPoint x="881" y="677" as="targetPoint" />
          </mxGeometry>
        </mxCell>
        <mxCell id="09Y03hOddAknPkSXVENw-9" value="" style="endArrow=classic;html=1;rounded=0;exitX=0.574;exitY=0.128;exitDx=0;exitDy=0;exitPerimeter=0;entryX=0.38;entryY=0.974;entryDx=0;entryDy=0;entryPerimeter=0;" parent="1" source="mxpaeU-n5_tWIOXO6mhX-49" target="mxpaeU-n5_tWIOXO6mhX-51" edge="1">
          <mxGeometry width="50" height="50" relative="1" as="geometry">
            <mxPoint x="1043" y="1220" as="sourcePoint" />
            <mxPoint x="589" y="1224" as="targetPoint" />
          </mxGeometry>
        </mxCell>
        <mxCell id="09Y03hOddAknPkSXVENw-11" value="" style="endArrow=classic;html=1;rounded=0;exitX=1.001;exitY=0.611;exitDx=0;exitDy=0;exitPerimeter=0;entryX=-0.01;entryY=0.697;entryDx=0;entryDy=0;entryPerimeter=0;" parent="1" source="mxpaeU-n5_tWIOXO6mhX-49" target="09Y03hOddAknPkSXVENw-12" edge="1">
          <mxGeometry width="50" height="50" relative="1" as="geometry">
            <mxPoint x="1101" y="1047" as="sourcePoint" />
            <mxPoint x="1270" y="1100" as="targetPoint" />
          </mxGeometry>
        </mxCell>
        <mxCell id="09Y03hOddAknPkSXVENw-12" value="Λήψη λίστας &quot;τα ραντεβού μου&quot;" style="ellipse;shape=umlControl;whiteSpace=wrap;html=1;strokeColor=#000000;fontColor=#000000;" parent="1" vertex="1">
          <mxGeometry x="1230" y="1020" width="100" height="110" as="geometry" />
        </mxCell>
        <mxCell id="09Y03hOddAknPkSXVENw-13" value="" style="endArrow=classic;html=1;rounded=0;exitX=0.212;exitY=0.234;exitDx=0;exitDy=0;exitPerimeter=0;entryX=0.914;entryY=0.754;entryDx=0;entryDy=0;entryPerimeter=0;" parent="1" source="09Y03hOddAknPkSXVENw-12" target="mxpaeU-n5_tWIOXO6mhX-51" edge="1">
          <mxGeometry width="50" height="50" relative="1" as="geometry">
            <mxPoint x="1101" y="1047" as="sourcePoint" />
            <mxPoint x="1122" y="978" as="targetPoint" />
          </mxGeometry>
        </mxCell>
        <mxCell id="09Y03hOddAknPkSXVENw-14" value="" style="endArrow=classic;html=1;rounded=0;exitX=0.166;exitY=0.941;exitDx=0;exitDy=0;exitPerimeter=0;entryX=0.913;entryY=0.236;entryDx=0;entryDy=0;entryPerimeter=0;" parent="1" source="09Y03hOddAknPkSXVENw-12" target="mxpaeU-n5_tWIOXO6mhX-53" edge="1">
          <mxGeometry width="50" height="50" relative="1" as="geometry">
            <mxPoint x="1261" y="1056" as="sourcePoint" />
            <mxPoint x="1141" y="979" as="targetPoint" />
          </mxGeometry>
        </mxCell>
      </root>
    </mxGraphModel>
  </diagram>
</mxfile>
